<svg width="208" height="29" viewBox="0 0 208 29" fill="none" xmlns="http://www.w3.org/2000/svg">
<g clip-path="url(#clip0_1303_692)">
<path d="M40.4615 8.40423V11.2508C40.4615 11.9059 40.8305 12.0942 41.6588 12.1921V12.3803H37.3965V12.1921C38.2249 12.0942 38.5939 11.9059 38.5939 11.2508V4.40553C38.5939 3.76544 38.2249 3.57718 37.3965 3.47928V3.29102H41.6287C43.8878 3.29102 45.3939 4.17962 45.3939 5.87398C45.3939 7.56835 43.8878 8.40423 41.6287 8.40423H40.4615ZM40.4615 3.67507V8.02771H41.3275C41.6125 8.04789 41.8984 8.00546 42.1653 7.90339C42.4322 7.80131 42.6734 7.64207 42.8722 7.43683C43.071 7.2316 43.2224 6.98534 43.3159 6.71536C43.4094 6.44537 43.4427 6.15819 43.4134 5.87398C43.4431 5.58757 43.4105 5.29813 43.3178 5.02551C43.2251 4.7529 43.0744 4.50359 42.8763 4.29468C42.6781 4.08578 42.4371 3.92224 42.1697 3.81528C41.9024 3.70833 41.615 3.6605 41.3275 3.67507H40.4615Z" fill="white"/>
<path d="M55.5601 12.1918V12.3801H51.2753V12.1918C52.1563 12.0939 52.322 11.8077 51.953 11.002L51.2602 9.49587H47.6154L46.9377 11.002C46.5838 11.8077 46.757 12.0939 47.6908 12.1918V12.3801H45.1078V12.1918C45.4316 12.151 45.7366 12.0168 45.9853 11.8055C46.2341 11.5942 46.4159 11.315 46.5085 11.002L50.0855 3.0874H50.2888L54.054 11.002C54.1562 11.3288 54.3547 11.6172 54.6234 11.8295C54.8921 12.0417 55.2185 12.168 55.5601 12.1918ZM51.087 9.10428L49.4002 5.44445L47.7811 9.10428H51.087Z" fill="white"/>
<path d="M65.8092 3.29102V3.47928C64.9281 3.57718 64.6118 3.81062 64.6118 4.6691V12.5837H64.1751L58.1507 4.75947V11.0023C58.1507 11.8607 58.5498 12.0942 59.6568 12.1921V12.3803H56.6295V12.1921C57.5106 12.0942 57.8118 11.8457 57.8118 11.0023V4.31517C57.6582 4.09248 57.4607 3.90349 57.2315 3.75976C57.0023 3.61603 56.7462 3.52059 56.4789 3.47928V3.29102H59.4459L64.2579 9.66183V4.6691C64.2579 3.82568 63.8814 3.57718 62.7518 3.47928V3.29102H65.8092Z" fill="white"/>
<path d="M79.4695 12.1918V12.3801H75.1847V12.1918C76.0657 12.0939 76.2314 11.8077 75.8624 11.002L75.1696 9.49587H71.5399L70.8621 11.002C70.5082 11.8077 70.6814 12.0939 71.6152 12.1918V12.3801H69.0322V12.1918C69.3561 12.151 69.661 12.0168 69.9098 11.8055C70.1585 11.5942 70.3403 11.315 70.4329 11.002L74.0099 3.0874H74.2132L77.9785 11.002C78.0797 11.3265 78.2759 11.6133 78.5416 11.8254C78.8074 12.0375 79.1306 12.1651 79.4695 12.1918ZM74.9964 9.10428L73.3096 5.44445L71.6905 9.10428H74.9964Z" fill="white"/>
<path d="M92.5047 3.47892C91.5484 3.53916 91.2773 3.7952 91.2773 4.53319V11.3107C91.2773 11.8303 91.5785 12.0637 92.5047 12.1993V12.3875H88.2199V12.1993C89.1461 12.0863 89.4323 11.8152 89.4323 11.3107V5.21094L85.9457 12.3649H85.524L82.0825 5.00761V11.3031C82.0825 11.8077 82.3837 12.0562 83.325 12.1917V12.38H80.4936V12.1917C81.4048 12.0788 81.706 11.8227 81.706 11.3031V4.52566C81.706 3.77261 81.4349 3.53163 80.4785 3.47139V3.28313H83.325L86.5556 10.2037L89.9218 3.26807H92.5047V3.47892Z" fill="white"/>
<path d="M96.993 12.192C98.1 12.0941 98.4615 11.9059 98.4615 11.2507V4.82718H97.0232V4.63891C98.162 4.38318 99.2264 3.86774 100.133 3.13281H100.329V11.2507C100.329 11.9059 100.698 12.0941 101.511 12.192V12.3803H96.993V12.192Z" fill="white"/>
<path d="M102.603 7.83923C102.603 5.27886 103.853 3.10254 106.436 3.10254C109.019 3.10254 110.202 5.27886 110.202 7.83923C110.202 10.3996 108.951 12.5684 106.436 12.5684C103.921 12.5684 102.603 10.3921 102.603 7.83923ZM108.296 8.43414C108.296 6.03944 107.604 3.47154 106.203 3.47154C105.224 3.47154 104.546 5.15837 104.546 7.23679C104.546 9.72939 105.209 12.1994 106.625 12.1994C107.596 12.1994 108.296 10.5126 108.296 8.43414Z" fill="white"/>
<path d="M117.619 10.0156C117.619 11.6045 116.249 12.5684 114.125 12.5684C112.423 12.5684 111.06 11.8154 110.857 10.3921L112.656 9.88757C112.807 11.2807 113.41 12.1919 114.343 12.1919C115.096 12.1919 115.729 11.4389 115.729 10.106C115.729 8.77306 114.818 7.8468 113.033 7.8468V7.64348C114.539 7.4025 115.292 6.64192 115.292 5.73826C115.293 5.52369 115.249 5.31132 115.164 5.11443C115.078 4.91755 114.953 4.7404 114.796 4.59407C114.639 4.44774 114.454 4.33539 114.252 4.26404C114.049 4.1927 113.834 4.1639 113.62 4.17944C113.161 4.1828 112.715 4.32985 112.343 4.59996C111.972 4.87007 111.694 5.24969 111.549 5.68555L111.391 5.63283C111.491 4.90164 111.862 4.23485 112.432 3.76576C113.001 3.29667 113.727 3.05983 114.464 3.10258C116.233 3.10258 117.182 4.11167 117.182 5.31655C117.182 6.95067 115.578 7.44016 113.907 7.64348C115.827 7.64348 117.619 8.19321 117.619 10.0156Z" fill="white"/>
<path d="M130.534 9.83503L130.202 12.3803H123.033V12.1921C123.945 12.0791 124.231 11.8231 124.231 11.2508V4.40553C124.231 3.84827 123.945 3.59224 123.033 3.47928V3.29102H127.266V3.47928C126.354 3.59224 126.068 3.84827 126.068 4.40553V11.2508C126.068 11.7553 126.287 12.0038 126.693 12.0038H127.672C128.304 12.0406 128.927 11.839 129.418 11.4389C129.909 11.0387 130.232 10.4691 130.323 9.84256L130.534 9.83503Z" fill="white"/>
<path d="M131.46 8.02735C131.426 7.37806 131.528 6.72885 131.758 6.12078C131.988 5.51271 132.342 4.959 132.797 4.49469C133.252 4.03038 133.799 3.66557 134.402 3.42332C135.005 3.18107 135.652 3.06666 136.302 3.08733C136.917 3.04673 137.534 3.13393 138.114 3.34343C138.694 3.55294 139.224 3.88022 139.671 4.30466C140.118 4.7291 140.472 5.2415 140.712 5.80962C140.951 6.37773 141.07 6.98924 141.062 7.60564C141.094 8.25403 140.992 8.90211 140.763 9.50939C140.533 10.1167 140.181 10.6701 139.728 11.1351C139.275 11.6001 138.731 11.9667 138.13 12.212C137.529 12.4573 136.884 12.576 136.235 12.5607C135.617 12.6036 134.997 12.5176 134.414 12.3082C133.832 12.0988 133.299 11.7705 132.85 11.3442C132.401 10.9179 132.046 10.4029 131.807 9.83188C131.567 9.26088 131.449 8.64637 131.46 8.02735ZM139.089 8.19302C139.089 5.65524 137.876 3.47892 136.001 3.47139C134.412 3.47139 133.403 5.11304 133.403 7.49269C133.403 10.0154 134.668 12.1917 136.506 12.1993C138.095 12.1993 139.089 10.5275 139.089 8.19302Z" fill="white"/>
<path d="M142.161 8.04248C142.161 5.2336 143.84 3.0874 146.732 3.0874C148.517 3.0874 149.902 3.84046 150.339 5.18089L148.652 5.68543C148.411 4.35253 147.651 3.47146 146.597 3.47146C145.09 3.47146 144.059 4.97756 144.066 7.31955C144.074 9.66154 145.527 11.2128 147.455 11.2128C148.078 11.2365 148.692 11.0598 149.207 10.7088C149.722 10.3577 150.111 9.8508 150.317 9.26242L150.505 9.3076C150.373 10.2314 149.906 11.0748 149.195 11.6783C148.483 12.2819 147.575 12.6039 146.642 12.5834C146.045 12.5949 145.452 12.4849 144.899 12.26C144.347 12.0352 143.845 11.7001 143.426 11.2753C143.007 10.8505 142.679 10.3448 142.461 9.78898C142.244 9.2332 142.142 8.63897 142.161 8.04248Z" fill="white"/>
<path d="M161.906 12.192V12.3803H158.675C158.611 12.007 158.456 11.6553 158.224 11.3561L155.814 7.74147L154.918 8.58489V11.2507C154.918 11.9058 155.287 12.0941 156.115 12.192V12.3803H151.89V12.192C152.719 12.0941 153.088 11.9058 153.088 11.2507V4.40546C153.088 3.76536 152.719 3.5771 151.89 3.4792V3.29094H156.138V3.4792C155.309 3.5771 154.94 3.76536 154.94 4.40546V8.05022L158.954 4.28497C159.549 3.72771 159.346 3.46414 158.329 3.46414V3.27588H161.228V3.46414C160.529 3.56796 159.883 3.8987 159.391 4.40546L157.184 6.47635L160.317 11.0474C160.487 11.3388 160.716 11.5912 160.99 11.7884C161.264 11.9855 161.576 12.1231 161.906 12.192Z" fill="white"/>
<path d="M171.116 9.83503L170.777 12.3803H163.412V12.1921C164.24 12.0942 164.609 11.9059 164.609 11.2508V4.40553C164.609 3.76544 164.24 3.57718 163.412 3.47928V3.29102H170.634L170.943 5.83633H170.754C170.661 5.21048 170.338 4.64191 169.848 4.24209C169.357 3.84228 168.735 3.64005 168.104 3.67507H166.439V7.52316H167.667C168.668 7.52316 168.947 7.04874 168.985 6.1752H169.173V9.24765H168.985C168.947 8.38164 168.668 7.90722 167.667 7.90722H166.439V11.2508C166.439 11.7553 166.658 12.0038 167.064 12.0038H168.239C168.88 12.0488 169.514 11.8505 170.015 11.4485C170.516 11.0465 170.848 10.4704 170.943 9.83503H171.116Z" fill="white"/>
<path d="M182.148 12.1921V12.3803H179.038C178.956 12.111 178.832 11.8567 178.669 11.6273L176.575 8.42682H175.77V11.2734C175.77 11.9285 176.139 12.1168 176.967 12.2147V12.4029H172.727V12.2147C173.556 12.1168 173.925 11.9285 173.925 11.2734V4.40553C173.925 3.76544 173.556 3.57718 172.727 3.47928V3.29102H176.967C179.226 3.29102 180.732 4.17962 180.732 5.87398C180.732 7.08639 179.979 7.8771 178.639 8.21597L180.725 11.2282C180.885 11.4762 181.094 11.6894 181.338 11.855C181.583 12.0206 181.858 12.1352 182.148 12.1921ZM175.77 8.02771H176.643C176.928 8.04674 177.213 8.00345 177.479 7.90086C177.745 7.79828 177.985 7.63886 178.183 7.43376C178.381 7.22866 178.531 6.98282 178.625 6.71341C178.718 6.444 178.751 6.15752 178.722 5.87398C178.752 5.58797 178.721 5.29867 178.629 5.02604C178.537 4.75341 178.387 4.50395 178.19 4.29489C177.992 4.08583 177.752 3.92214 177.485 3.81513C177.218 3.70812 176.93 3.66033 176.643 3.67507H175.785L175.77 8.02771Z" fill="white"/>
<path d="M183.473 12.1921C184.302 12.0942 184.671 11.9059 184.671 11.2508V4.40553C184.671 3.76544 184.302 3.57718 183.473 3.47928V3.29102H187.811C189.904 3.29102 191.237 4.13443 191.237 5.49746C191.237 6.61197 190.371 7.40268 188.978 7.55329C190.733 7.71143 191.855 8.61509 191.855 9.86516C191.855 11.3713 190.545 12.3803 188.489 12.3803H183.473V12.1921ZM187.623 7.47045C188.654 7.47045 189.279 6.7174 189.279 5.53511C189.3 5.28427 189.266 5.03192 189.179 4.79577C189.092 4.55962 188.954 4.34539 188.775 4.16814C188.597 3.99088 188.381 3.85489 188.144 3.76971C187.908 3.68453 187.655 3.65223 187.404 3.67507H186.516V7.44033L187.623 7.47045ZM188.067 11.9888C188.329 11.9748 188.585 11.9078 188.82 11.7918C189.056 11.6758 189.265 11.5132 189.435 11.3139C189.606 11.1146 189.734 10.8828 189.812 10.6324C189.89 10.3821 189.916 10.1185 189.889 9.85762C189.893 9.57067 189.834 9.28635 189.719 9.02375C189.603 8.76116 189.432 8.52638 189.218 8.3352C189.004 8.14402 188.752 8.00086 188.478 7.91535C188.204 7.82984 187.915 7.80396 187.63 7.83945H186.486V11.183C186.486 11.7026 186.787 11.9963 187.457 11.9963L188.067 11.9888Z" fill="white"/>
<path d="M193.534 12.1921C194.37 12.0942 194.732 11.9059 194.732 11.2508V4.40553C194.732 3.76544 194.37 3.57718 193.534 3.47928V3.29102H197.781V3.47928C196.953 3.57718 196.584 3.76544 196.584 4.40553V11.2508C196.584 11.9059 196.953 12.0942 197.781 12.1921V12.3803H193.534V12.1921Z" fill="white"/>
<path d="M207.089 9.83503L206.75 12.3803H199.393V12.1921C200.221 12.0942 200.59 11.9059 200.59 11.2508V4.40553C200.59 3.76544 200.221 3.57718 199.393 3.47928V3.29102H206.615L206.939 5.83633H206.75C206.657 5.20637 206.33 4.63447 205.835 4.23411C205.34 3.83375 204.712 3.63421 204.077 3.67507H202.413V7.52316H203.64C204.642 7.52316 204.92 7.04874 204.958 6.1752H205.146V9.24765H204.958C204.92 8.38164 204.642 7.90722 203.64 7.90722H202.413V11.2508C202.413 11.7553 202.631 12.0038 203.038 12.0038H204.212C204.846 12.0392 205.47 11.8375 205.963 11.438C206.456 11.0384 206.782 10.4697 206.878 9.84256L207.089 9.83503Z" fill="white"/>
<path d="M43.6318 23.0585L43.3005 25.2649H37.2761V25.0917C38.0668 25.0465 38.383 24.8733 38.383 24.173V18.1486C38.383 17.4784 38.0668 17.2901 37.2761 17.2449V17.0566H40.597V17.2298C39.844 17.275 39.5051 17.4633 39.5051 18.1335V24.1579C39.5051 24.685 39.7009 24.911 40.1301 24.911H41.4178C42.5248 24.911 43.1499 24.2633 43.436 23.0434L43.6318 23.0585Z" fill="white"/>
<path d="M51.9003 23.0585L51.584 25.2649H45.1002V25.0917C45.8533 25.0465 46.2072 24.911 46.2072 24.173V18.1486C46.2072 17.4407 45.8457 17.2901 45.1002 17.2449V17.0566H51.4334L51.7647 19.2555H51.5915C51.3129 18.0507 50.6803 17.3955 49.5733 17.3955H47.3142V20.8821H48.8805C49.7767 20.8821 49.9348 20.4981 49.9649 19.7149H50.1306V22.4033H49.9649C49.9649 21.6503 49.7767 21.221 48.8805 21.221H47.3142V24.1805C47.3142 24.7076 47.51 24.9336 47.9468 24.9336H49.7014C50.8083 24.9336 51.4259 24.2859 51.7045 23.066L51.9003 23.0585Z" fill="white"/>
<path d="M53.6248 21.3567C53.6248 18.7135 55.2363 16.8384 57.7967 16.8384C59.3028 16.8384 60.6055 17.5914 60.9369 18.6457L59.8525 18.9921C59.7394 18.4767 59.454 18.0152 59.0432 17.6839C58.6325 17.3525 58.1211 17.1712 57.5933 17.1697C55.9668 17.1697 54.7995 18.7436 54.8146 20.9877C54.8296 23.2318 56.1625 25.0542 58.0075 25.0542C58.6426 25.0796 59.2638 24.8645 59.7471 24.4517V22.3432C59.7471 21.6805 59.476 21.3492 58.5723 21.2964V21.1232H61.9686V21.2964C61.1703 21.3492 60.8616 21.7182 60.8616 22.3432V23.9773C60.3222 24.6257 59.5962 25.0923 58.7823 25.3134C57.9684 25.5345 57.1061 25.4995 56.3127 25.2131C55.5194 24.9267 54.8336 24.4029 54.3486 23.7128C53.8636 23.0228 53.603 22.2001 53.6022 21.3567H53.6248Z" fill="white"/>
<path d="M71.3064 25.0992V25.2649H68.1511V25.0917C68.987 25.0314 69.1226 24.8131 68.7837 24.0751L68.1361 22.569H64.6193L63.9792 24.0751C63.6554 24.8281 63.806 25.0314 64.657 25.0917V25.2649H62.3978V25.0917C63.0379 25.0314 63.309 24.8131 63.6328 24.0751L66.7053 16.8608H66.9011L70.0338 24.0826C70.3651 24.8206 70.6362 25.039 71.3064 25.0992ZM67.9855 22.2527L66.3664 18.4347L64.7624 22.2527H67.9855Z" fill="white"/>
<path d="M71.9842 21.3567C71.9842 18.7511 73.5355 16.8384 75.9904 16.8384C77.4965 16.8384 78.6412 17.5312 79.0026 18.6457L77.9182 18.9921C77.8446 18.4977 77.6002 18.0448 77.2274 17.7119C76.8546 17.379 76.377 17.1872 75.8775 17.1697C74.2885 17.1697 73.1966 18.6758 73.1966 20.8296C73.1966 22.9833 74.4693 24.512 76.3218 24.512C76.9063 24.538 77.4837 24.3747 77.968 24.0464C78.4524 23.7181 78.8178 23.2422 79.0102 22.6896H79.1683C79.0199 23.4583 78.606 24.1503 77.9988 24.6445C77.3917 25.1387 76.6301 25.4037 75.8473 25.393C75.3257 25.3914 74.8098 25.2847 74.3304 25.079C73.851 24.8734 73.4181 24.5732 73.0574 24.1964C72.6967 23.8196 72.4158 23.3738 72.2314 22.8859C72.047 22.398 71.9629 21.8779 71.9842 21.3567Z" fill="white"/>
<path d="M82.3236 25.0992C83.0767 25.054 83.408 24.9034 83.408 24.1805V21.4996L81.3296 18.2465C80.8627 17.4934 80.5765 17.2901 80.0645 17.2298V17.0566H83.0767V17.2298C82.2182 17.275 82.1203 17.5009 82.5947 18.2465L84.3418 21.0177L86.0813 18.2465C86.5557 17.4934 86.4127 17.275 85.4789 17.2298V17.0566H87.8133V17.2298C87.2335 17.2901 86.9624 17.5009 86.488 18.2465L84.4999 21.4996V24.2182C84.4999 24.9712 84.8538 25.0917 85.5843 25.1369V25.2649H82.3236V25.0992Z" fill="white"/>
<path d="M98.7702 19.2405H98.597C98.3108 18.0356 97.6858 17.3805 96.5939 17.3805H94.3347V20.8671H95.8935C96.7896 20.8671 96.9403 20.483 96.9779 19.6999H97.1436V22.4033H96.9704C96.9704 21.6503 96.7821 21.221 95.886 21.221H94.3272V24.1429C94.3272 24.8959 94.6811 25.054 95.7881 25.0992V25.2649H92.0981V25.0917C92.8512 25.0465 93.2051 24.911 93.2051 24.173V18.1486C93.2051 17.4407 92.8512 17.2901 92.0981 17.2449V17.0566H98.4313L98.7702 19.2405Z" fill="white"/>
<path d="M100.239 21.3341C100.239 18.7059 101.971 16.8685 104.396 16.8685C104.938 16.85 105.478 16.9445 105.982 17.1459C106.486 17.3474 106.943 17.6515 107.323 18.0388C107.704 18.4261 107.999 18.8883 108.191 19.3959C108.383 19.9036 108.468 20.4456 108.439 20.9877C108.439 23.6234 106.715 25.4533 104.305 25.4533C103.761 25.4738 103.219 25.3809 102.713 25.1805C102.206 24.98 101.747 24.6764 101.365 24.289C100.982 23.9016 100.685 23.4388 100.491 22.93C100.297 22.4213 100.211 21.8778 100.239 21.3341ZM107.272 21.3341C107.272 19.0072 105.984 17.2224 104.147 17.2224C102.49 17.2224 101.444 18.7812 101.428 20.9877C101.413 23.1941 102.746 25.0993 104.554 25.0993C106.218 25.1144 107.272 23.5255 107.272 21.3265V21.3341Z" fill="white"/>
<path d="M118.078 17.0566V17.2298C117.325 17.275 116.971 17.4256 116.971 18.1335V22.3431C117.011 22.7481 116.963 23.1568 116.83 23.5414C116.697 23.9261 116.483 24.2776 116.202 24.572C115.921 24.8665 115.58 25.0969 115.202 25.2477C114.824 25.3984 114.418 25.4659 114.012 25.4456C111.994 25.4456 110.751 24.2633 110.751 22.3431V18.1335C110.751 17.4256 110.382 17.275 109.644 17.2298V17.0566H112.958V17.2298C112.205 17.275 111.851 17.4256 111.851 18.1335V22.3431C111.821 22.6841 111.867 23.0274 111.983 23.3493C112.099 23.6712 112.284 23.9639 112.525 24.2074C112.765 24.4508 113.056 24.6391 113.376 24.7593C113.697 24.8795 114.04 24.9287 114.381 24.9034C115.759 24.9034 116.64 23.9094 116.64 22.3431V18.1335C116.64 17.4256 116.279 17.275 115.541 17.2298V17.0566H118.078Z" fill="white"/>
<path d="M127.928 17.0566V17.2298C127.077 17.275 126.821 17.5009 126.821 18.2465V25.4532H126.513L121.241 18.2615V24.0826C121.241 24.8357 121.55 25.039 122.537 25.0992V25.2649H119.795V25.0917C120.639 25.0315 120.902 24.8131 120.902 24.0751V17.8248C120.763 17.6387 120.582 17.4875 120.374 17.383C120.167 17.2785 119.938 17.2235 119.705 17.2223V17.0566H121.738L126.513 23.5479V18.2766C126.513 17.5235 126.204 17.3052 125.217 17.26V17.0566H127.928Z" fill="white"/>
<path d="M137.522 20.8821C137.549 21.4521 137.459 22.0214 137.258 22.5553C137.056 23.0891 136.748 23.5762 136.352 23.9867C135.955 24.3971 135.479 24.7222 134.953 24.942C134.426 25.1618 133.861 25.2717 133.29 25.2649H129.6V25.0917C130.353 25.0465 130.707 24.911 130.707 24.173V18.1486C130.707 17.4407 130.353 17.2901 129.6 17.2449V17.0566H133.132C136.227 17.0566 137.522 18.8414 137.522 20.8821ZM136.332 21.1608C136.332 19.3083 135.158 17.3955 132.921 17.3955H131.829V24.173C131.829 24.7528 132.198 24.926 133.335 24.926C135.158 24.926 136.302 23.5404 136.302 21.1608H136.332Z" fill="white"/>
<path d="M146.905 25.0992V25.2649H143.742V25.0917C144.578 25.0314 144.714 24.8131 144.383 24.0751L143.735 22.569H140.211L139.578 24.0751C139.254 24.8281 139.405 25.0314 140.248 25.0917V25.2649H137.989V25.0917C138.629 25.0314 138.9 24.8131 139.224 24.0751L142.297 16.8608H142.492L145.64 24.0751C145.956 24.8206 146.228 25.039 146.905 25.0992ZM143.584 22.2527L141.958 18.4347L140.361 22.2527H143.584Z" fill="white"/>
<path d="M154.737 19.2405H154.564C154.278 18.0356 153.653 17.3805 152.561 17.3805H151.559V24.1579C151.559 24.8582 151.883 25.0315 152.666 25.0766V25.2649H149.345V25.0917C150.098 25.0465 150.452 24.8733 150.452 24.173V17.3955H149.458C148.359 17.3955 147.734 18.0507 147.455 19.2555H147.282L147.598 17.0566H154.413L154.737 19.2405Z" fill="white"/>
<path d="M156.22 25.0992C156.974 25.039 157.327 24.9185 157.327 24.1805V18.1561C157.327 17.4482 156.974 17.2976 156.22 17.2524V17.0566H159.541V17.2298C158.788 17.275 158.449 17.4256 158.449 18.1335V24.1579C158.449 24.911 158.803 25.0164 159.541 25.0766V25.2649H156.22V25.0992Z" fill="white"/>
<path d="M160.912 21.3338C160.912 18.7056 162.644 16.8682 165.069 16.8682C165.614 16.8454 166.158 16.9367 166.665 17.1362C167.173 17.3358 167.633 17.6392 168.017 18.027C168.4 18.4148 168.698 18.8784 168.892 19.3882C169.086 19.898 169.172 20.4427 169.143 20.9874C169.143 23.623 167.418 25.4529 165.009 25.4529C164.462 25.479 163.916 25.3901 163.405 25.192C162.895 24.9939 162.432 24.691 162.046 24.3028C161.66 23.9147 161.359 23.4499 161.164 22.9385C160.969 22.4271 160.883 21.8804 160.912 21.3338ZM167.946 21.3338C167.946 19.0068 166.658 17.2221 164.82 17.2221C163.164 17.2221 162.117 18.7809 162.102 20.9874C162.087 23.1938 163.42 25.099 165.227 25.099C166.891 25.1141 167.93 23.5251 167.93 21.3262L167.946 21.3338Z" fill="white"/>
<path d="M178.676 17.0566V17.2298C177.825 17.275 177.569 17.5009 177.569 18.2465V25.4532H177.276L171.967 18.2615V24.0826C171.967 24.8357 172.276 25.039 173.262 25.0992V25.2649H170.521V25.0917C171.364 25.0315 171.628 24.8131 171.628 24.0751V17.8248C171.488 17.6387 171.308 17.4875 171.1 17.383C170.892 17.2785 170.663 17.2235 170.431 17.2223V17.0566H172.449L177.208 23.5479V18.2766C177.208 17.5235 176.899 17.3052 175.913 17.26V17.0566H178.676Z" fill="white"/>
<path d="M27.7123 3.31336L28.3674 1.95787L29.2259 0.082773C29.2312 0.0719373 29.2331 0.0597615 29.2314 0.0478242C29.2297 0.0358868 29.2245 0.0247366 29.2164 0.0158141C29.2083 0.0068916 29.1976 0.000607269 29.1859 -0.00222337C29.1742 -0.00505401 29.1619 -0.00430049 29.1506 -6.31281e-05L27.268 0.858415L25.92 1.49098C25.903 1.49797 25.8895 1.51142 25.8825 1.52836C25.8754 1.54531 25.8754 1.56437 25.8824 1.58134C25.8894 1.59832 25.9028 1.61182 25.9198 1.61889C25.9367 1.62595 25.9558 1.62599 25.9727 1.619L27.652 1.30271L24.2407 4.68391C21.783 2.30733 18.5097 0.96029 15.0911 0.918657H14.6619C11.448 0.92192 8.3452 2.09557 5.93369 4.2202C3.52217 6.34483 1.96696 9.275 1.55882 12.4629C1.03168 12.7566 0.753051 13.0804 0.753051 13.4042V14.9857C0.753051 15.317 1.03168 15.6408 1.56635 15.942C1.91351 18.8061 3.17597 21.4816 5.16593 23.5704L2.78629 25.9576L2.11608 26.0103C2.09658 26.0034 2.07532 26.0034 2.05583 26.0103L0 28.021V28.0662L1.27266 27.7198L0.89613 28.9548C0.89613 28.9548 0.896131 28.9548 0.941314 28.9548L2.92184 26.9065C2.9294 26.8871 2.9294 26.8656 2.92184 26.8462L2.98208 26.1459L5.33913 23.8039C7.11395 25.6062 9.36177 26.8705 11.8237 27.4511C14.2856 28.0318 16.8615 27.9053 19.2546 27.086C21.6477 26.2668 23.7608 24.7883 25.3504 22.8207C26.94 20.8531 27.9414 18.4765 28.2394 15.9646C28.7741 15.6634 29.0527 15.3396 29.0527 15.0082V13.4268C29.0527 13.0955 28.759 12.7642 28.2018 12.4554C27.8104 9.61004 26.5079 6.96801 24.4892 4.92489L27.9231 1.5211L27.5843 3.26065C27.5773 3.27762 27.5773 3.29668 27.5844 3.31363C27.5914 3.33058 27.6049 3.34402 27.6219 3.35102C27.6389 3.35801 27.658 3.35796 27.6749 3.3509C27.6918 3.34384 27.7053 3.33034 27.7123 3.31336ZM26.1459 20.9122C26.0048 19.5074 25.455 18.1748 24.5645 17.0791L24.8883 17.0189C25.8692 16.8537 26.8305 16.5888 27.7575 16.2282C27.5361 17.8809 26.9883 19.4731 26.1459 20.9122ZM12.6663 16.1604C11.201 15.0553 9.80758 13.858 8.49442 12.5759C10.6226 12.3444 12.7621 12.2312 14.9029 12.237C15.4752 12.237 16.04 12.237 16.5972 12.237L12.6663 16.1378V16.1604ZM14.9255 16.1604C14.3306 16.1604 13.7432 16.1604 13.1709 16.1604L17.1018 12.2671H17.3202C18.8204 13.3706 20.2514 14.5651 21.605 15.8441C19.3791 16.0875 17.1421 16.2157 14.9029 16.2282L14.9255 16.1604ZM8.28356 11.1602C10.4926 10.9323 12.7122 10.8217 14.933 10.8288H15.2719C15.8141 11.1978 16.3638 11.5819 16.9135 11.9734L16.8683 12.0262C16.2358 12.0262 15.5882 12.0262 14.933 12.0262C12.7112 12.0084 10.4904 12.1291 8.28356 12.3876C8.08777 12.1918 7.89951 11.996 7.7263 11.8078L8.28356 11.1602ZM9.88756 16.0098C8.30616 15.8893 6.87536 15.7161 5.61023 15.4977C5.98333 14.6331 6.42923 13.8018 6.94313 13.0127C7.83877 14.0827 8.81291 15.0845 9.85744 16.0098H9.88756ZM20.2345 12.4629C21.2963 12.5608 22.3204 12.6888 23.2467 12.8395L24.1428 12.9976C23.8272 13.7552 23.4547 14.4877 23.0283 15.189C22.1576 14.2202 21.2243 13.3096 20.2345 12.4629ZM19.9333 12.2069C19.4363 11.7927 18.9166 11.3861 18.382 10.9794L18.4498 10.9568C20.5363 11.0489 22.6143 11.2803 24.67 11.6496C24.5495 12.0488 24.4064 12.4479 24.2482 12.847C22.9907 12.5684 21.5297 12.3575 19.9333 12.2144V12.2069ZM14.8728 10.5803C12.7378 10.5743 10.6038 10.6774 8.47936 10.8891C8.92366 10.3544 9.39808 9.84231 9.90263 9.33777C10.2641 8.98384 10.6557 8.64497 11.0096 8.32868C12.3395 9.00714 13.6294 9.76144 14.8728 10.5878V10.5803ZM15.0083 17.8322C17.2675 17.8322 19.4588 17.7192 21.4168 17.5159C20.9017 18.1538 20.3511 18.7623 19.7676 19.3383C19.4739 19.6244 19.1727 19.9031 18.8715 20.1742C17.5435 19.4647 16.254 18.6854 15.0083 17.8397V17.8322ZM17.9301 10.6481C16.1689 9.3461 14.2819 8.22349 12.2973 7.297C15.061 5.27882 17.9076 4.17937 20.2571 4.17937C21.4778 4.1276 22.6744 4.53004 23.6157 5.30895L18.2088 10.6707L17.9301 10.6481ZM4.9852 17.1243C4.9852 17.1243 4.9852 17.0641 4.9852 17.0415C6.97637 17.4016 8.98868 17.633 11.0096 17.7343L5.64036 23.0584C4.51831 21.7255 4.2698 19.632 4.9852 17.1243ZM11.5443 17.7569H12.0262L12.5232 18.1334C14.1162 19.303 15.8067 20.3334 17.5762 21.2134C15.8919 22.5348 13.9731 23.5261 11.9208 24.1352C9.37549 24.828 7.26695 24.5268 5.94911 23.2843L11.5443 17.7569ZM24.7302 11.3785C22.7391 11.0181 20.7268 10.7867 18.7058 10.6857L23.9018 5.54239C25.0992 6.83011 25.4004 8.89347 24.7302 11.3785ZM21.236 21.3038C20.9198 21.1757 20.5884 21.0327 20.2571 20.8745L20.7842 20.37C21.6745 19.4936 22.4836 18.5383 23.2015 17.5159C25.0164 19.5491 25.792 21.1306 25.3251 21.7706C24.8582 22.4107 23.4048 22.1924 21.236 21.3038ZM6.17502 6.71715C7.25154 6.80289 8.30444 7.07823 9.28512 7.53045L9.6014 7.666L8.9086 8.31362C8.13915 9.06532 7.4268 9.87332 6.77746 10.7309C5.3316 8.98383 4.74422 7.64341 5.16593 7.06356C5.29176 6.93261 5.44658 6.83304 5.61793 6.77287C5.78927 6.71271 5.97235 6.69362 6.15243 6.71715H6.17502ZM4.97767 11.6496L5.79096 11.499L5.91898 11.6873C5.95664 11.7475 6.00182 11.8003 6.03947 11.853C5.82862 12.1768 5.63282 12.5081 5.45209 12.8395C4.45148 13.0201 3.46499 13.2717 2.50013 13.5925C2.54531 13.1331 2.61309 12.6813 2.70345 12.2295C3.4387 11.9811 4.19129 11.7872 4.95508 11.6496H4.97767ZM2.48507 13.841C3.411 13.5102 4.36324 13.2583 5.3316 13.088C4.95436 13.7925 4.6321 14.5252 4.3677 15.2793C3.70594 15.137 3.05437 14.9508 2.41729 14.7221C2.42231 14.4209 2.43738 14.1272 2.46248 13.841H2.48507ZM25.4004 13.2612C26.2453 13.4463 27.0701 13.7136 27.8629 14.0594C27.8629 14.2025 27.8629 14.338 27.8629 14.4811C26.764 14.9466 25.6139 15.2802 24.4365 15.4751C24.8051 14.7617 25.1198 14.0216 25.3778 13.2612H25.4004ZM27.8629 13.8184C27.0823 13.5 26.2762 13.2481 25.4531 13.0654C25.5812 12.6512 25.6866 12.2445 25.7769 11.8379C26.4441 11.9922 27.0966 12.2039 27.7273 12.4705C27.7959 12.9171 27.8411 13.3671 27.8629 13.8184ZM10.7762 6.66444C8.76551 5.91139 7.06362 5.66288 5.90392 5.97163L6.20514 5.65535C8.17888 3.67269 10.7424 2.38367 13.511 1.98176C16.2796 1.57985 19.1038 2.08673 21.5599 3.42632C18.5025 2.67327 14.4059 3.85556 10.7762 6.66444ZM5.61776 11.2806L4.90989 11.4087C4.17522 11.5453 3.45064 11.7315 2.74111 11.9659C3.0524 10.5646 3.59717 9.22553 4.35263 8.00487C4.47923 9.18898 4.91559 10.3188 5.61776 11.2806ZM1.45339 14.0368L1.28772 14.1272C1.19413 14.0331 1.12002 13.9215 1.06962 13.7987C1.01923 13.676 0.993537 13.5445 0.994027 13.4118C0.994027 13.216 1.17476 12.9901 1.52116 12.7717C1.5061 13.216 1.45339 13.6151 1.45339 14.0368ZM3.90081 16.793C3.60607 18.0268 3.56254 19.3073 3.77279 20.5582C3.12315 19.2477 2.69805 17.8375 2.51519 16.3863C2.96992 16.5451 3.43238 16.6808 3.90081 16.793ZM10.0758 25.4832C10.8511 25.4765 11.6234 25.3881 12.3802 25.2196C14.8239 24.6279 17.1039 23.4956 19.0522 21.9062C20.4567 22.5475 21.9687 22.9204 23.5103 23.0056C23.9662 23.0171 24.4203 22.9457 24.8507 22.7948C24.6323 23.0584 24.3989 23.3069 24.1579 23.5478C22.0717 25.6316 19.3322 26.9343 16.3992 27.2374C13.4662 27.5404 10.5183 26.8253 8.05012 25.2121C8.71068 25.3902 9.39167 25.4813 10.0758 25.4832ZM28.3298 14.0368C28.3227 13.6063 28.2925 13.1764 28.2394 12.7491C28.6084 12.975 28.8117 13.2085 28.8117 13.4118C28.8139 13.5454 28.7882 13.678 28.7363 13.8011C28.6845 13.9243 28.6076 14.0353 28.5105 14.1272L28.3298 14.0368ZM25.8146 11.612C26.1328 10.1877 26.0861 8.70604 25.679 7.30453C26.6782 8.77559 27.3557 10.441 27.6671 12.1918C27.0673 11.9459 26.4475 11.7519 25.8146 11.612Z" fill="white"/>
</g>
<defs>
<clipPath id="clip0_1303_692">
<rect width="207.089" height="29" fill="white"/>
</clipPath>
</defs>
</svg>
