<svg width="208" height="29" fill="none" xmlns="http://www.w3.org/2000/svg"><g clip-path="url(#clip0_1303_692)" fill="#fff"><path d="M40.462 8.404v2.847c0 .655.368.843 1.197.941v.188h-4.262v-.188c.828-.098 1.197-.286 1.197-.941V4.406c0-.64-.37-.829-1.197-.927v-.188h4.232c2.259 0 3.765.889 3.765 2.583 0 1.694-1.506 2.53-3.765 2.53h-1.167zm0-4.729v4.353h.865a1.958 1.958 0 002.086-2.154 1.996 1.996 0 00-2.085-2.199h-.867zm15.098 8.517v.188h-4.285v-.188c.881-.098 1.047-.384.678-1.19l-.693-1.506h-3.645l-.677 1.506c-.354.806-.181 1.092.753 1.19v.188h-2.583v-.188a1.68 1.68 0 001.4-1.19l3.578-7.915h.203l3.765 7.915a1.702 1.702 0 001.506 1.19zm-4.473-3.088L49.4 5.444l-1.619 3.66h3.306zM65.81 3.291v.188c-.882.098-1.198.332-1.198 1.19v7.915h-.437l-6.024-7.825v6.243c0 .859.399 1.092 1.506 1.19v.188H56.63v-.188c.88-.098 1.182-.346 1.182-1.19V4.315a1.988 1.988 0 00-1.333-.836v-.188h2.967l4.812 6.37V4.67c0-.843-.377-1.092-1.506-1.19v-.188h3.057zm13.66 8.901v.188h-4.285v-.188c.88-.098 1.046-.384.677-1.19l-.692-1.506h-3.63l-.678 1.506c-.354.806-.18 1.092.753 1.19v.188h-2.583v-.188a1.68 1.68 0 001.4-1.19l3.578-7.915h.203l3.766 7.915a1.702 1.702 0 001.49 1.19zm-4.474-3.088l-1.686-3.66-1.62 3.66h3.306zm17.509-5.625c-.957.06-1.228.316-1.228 1.054v6.778c0 .52.302.753 1.228.888v.188H88.22V12.2c.926-.113 1.212-.384 1.212-.888v-6.1l-3.486 7.154h-.422l-3.442-7.357v6.295c0 .505.302.753 1.243.889v.188h-2.831v-.188c.91-.113 1.212-.37 1.212-.889V4.526c0-.753-.271-.994-1.228-1.055v-.188h2.847l3.23 6.92 3.367-6.935h2.583v.21zm4.488 8.713c1.107-.098 1.469-.286 1.469-.941V4.827h-1.439V4.64a7.574 7.574 0 003.11-1.506h.196v8.118c0 .655.369.843 1.182.941v.188h-4.518v-.188zm5.61-4.352c0-2.561 1.25-4.737 3.833-4.737s3.766 2.176 3.766 4.736c0 2.56-1.251 4.73-3.766 4.73s-3.833-2.177-3.833-4.73zm5.693.594c0-2.395-.692-4.962-2.093-4.962-.979 0-1.657 1.686-1.657 3.765 0 2.492.663 4.962 2.079 4.962.971 0 1.671-1.686 1.671-3.765zm9.323 1.582c0 1.588-1.37 2.552-3.494 2.552-1.702 0-3.065-.753-3.268-2.176l1.799-.504c.151 1.393.754 2.304 1.687 2.304.753 0 1.386-.753 1.386-2.086 0-1.333-.911-2.26-2.696-2.26v-.203c1.506-.24 2.259-1.001 2.259-1.905a1.556 1.556 0 00-1.672-1.559 2.2 2.2 0 00-2.071 1.507l-.158-.053a2.931 2.931 0 013.073-2.53c1.769 0 2.718 1.009 2.718 2.214 0 1.634-1.604 2.123-3.275 2.326 1.92 0 3.712.55 3.712 2.373zm12.915-.181l-.332 2.545h-7.169v-.188c.912-.113 1.198-.369 1.198-.941V4.406c0-.558-.286-.814-1.198-.927v-.188h4.233v.188c-.912.113-1.198.37-1.198.927v6.845c0 .504.219.753.625.753h.979a2.531 2.531 0 002.651-2.161l.211-.008zm.926-1.808a4.696 4.696 0 012.942-4.604 4.696 4.696 0 011.9-.336 4.468 4.468 0 014.76 4.519 4.735 4.735 0 01-1.334 3.53 4.722 4.722 0 01-3.493 1.425 4.47 4.47 0 01-3.385-1.217 4.459 4.459 0 01-1.39-3.317zm7.629.166c0-2.538-1.213-4.714-3.088-4.722-1.589 0-2.598 1.642-2.598 4.022 0 2.522 1.265 4.699 3.103 4.706 1.589 0 2.583-1.671 2.583-4.006zm3.072-.151c0-2.808 1.679-4.955 4.571-4.955 1.785 0 3.17.753 3.607 2.094l-1.687.504c-.241-1.332-1.001-2.214-2.055-2.214-1.507 0-2.538 1.507-2.531 3.849.008 2.342 1.461 3.893 3.389 3.893a2.914 2.914 0 002.862-1.95l.188.045a3.82 3.82 0 01-3.863 3.275 4.402 4.402 0 01-4.181-2.794 4.416 4.416 0 01-.3-1.747zm19.745 4.15v.188h-3.231a2.308 2.308 0 00-.451-1.024l-2.41-3.615-.896.844v2.666c0 .655.369.843 1.197.941v.188h-4.225v-.188c.829-.098 1.198-.286 1.198-.941V4.405c0-.64-.369-.828-1.198-.926v-.188h4.248v.188c-.829.098-1.198.286-1.198.926V8.05l4.014-3.765c.595-.557.392-.82-.625-.82v-.19h2.899v.19a3.22 3.22 0 00-1.837.94l-2.207 2.071 3.133 4.571a2.407 2.407 0 001.589 1.145zm9.21-2.357l-.339 2.545h-7.365v-.188c.828-.098 1.197-.286 1.197-.941V4.406c0-.64-.369-.829-1.197-.927v-.188h7.222l.309 2.545h-.189a2.54 2.54 0 00-2.65-2.16h-1.665v3.847h1.228c1.001 0 1.28-.474 1.318-1.348h.188v3.073h-.188c-.038-.866-.317-1.34-1.318-1.34h-1.228v3.343c0 .504.219.753.625.753h1.175a2.552 2.552 0 002.704-2.169h.173zm11.032 2.357v.188h-3.11a2.613 2.613 0 00-.369-.753l-2.094-3.2h-.805v2.846c0 .655.369.844 1.197.942v.188h-4.24v-.188c.829-.098 1.198-.287 1.198-.942V4.406c0-.64-.369-.829-1.198-.927v-.188h4.24c2.259 0 3.765.889 3.765 2.583 0 1.212-.753 2.003-2.093 2.342l2.086 3.012a2.2 2.2 0 001.423.964zm-6.378-4.164h.873a1.96 1.96 0 002.079-2.154 2 2 0 00-.532-1.58 1.99 1.99 0 00-1.547-.619h-.858l-.015 4.353zm7.703 4.164c.829-.098 1.198-.286 1.198-.941V4.406c0-.64-.369-.829-1.198-.927v-.188h4.338c2.093 0 3.426.843 3.426 2.206 0 1.115-.866 1.906-2.259 2.056 1.755.158 2.877 1.062 2.877 2.312 0 1.506-1.31 2.515-3.366 2.515h-5.016v-.188zm4.15-4.722c1.031 0 1.656-.753 1.656-1.935a1.723 1.723 0 00-1.875-1.86h-.888V7.44l1.107.03zm.444 4.519a1.934 1.934 0 001.822-2.131 2.01 2.01 0 00-2.259-2.019h-1.144v3.344c0 .52.301.813.971.813l.61-.007zm5.467.203c.836-.098 1.198-.286 1.198-.941V4.406c0-.64-.362-.829-1.198-.927v-.188h4.247v.188c-.828.098-1.197.286-1.197.927v6.845c0 .655.369.843 1.197.941v.188h-4.247v-.188zm13.555-2.357l-.339 2.545h-7.357v-.188c.828-.098 1.197-.286 1.197-.941V4.406c0-.64-.369-.829-1.197-.927v-.188h7.222l.324 2.545h-.189a2.538 2.538 0 00-2.673-2.16h-1.664v3.847h1.227c1.002 0 1.28-.474 1.318-1.348h.188v3.073h-.188c-.038-.866-.316-1.34-1.318-1.34h-1.227v3.343c0 .504.218.753.625.753h1.174a2.555 2.555 0 002.666-2.161l.211-.008zM43.632 23.058l-.331 2.207h-6.025v-.173c.79-.045 1.107-.219 1.107-.919v-6.024c0-.67-.316-.859-1.107-.904v-.188h3.321v.173c-.753.045-1.092.233-1.092.904v6.024c0 .527.196.753.625.753h1.288c1.107 0 1.732-.648 2.018-1.868l.196.015zm8.268 0l-.316 2.207H45.1v-.173c.753-.045 1.107-.181 1.107-.919v-6.024c0-.708-.361-.859-1.107-.904v-.188h6.333l.332 2.199h-.173c-.28-1.205-.912-1.86-2.019-1.86h-2.259v3.486h1.566c.897 0 1.055-.384 1.085-1.167h.166v2.688h-.166c0-.753-.188-1.182-1.085-1.182h-1.566v2.96c0 .527.196.753.633.753H49.7c1.107 0 1.725-.648 2.004-1.868l.195-.008zm1.725-1.701c0-2.643 1.611-4.519 4.172-4.519 1.506 0 2.809.753 3.14 1.808l-1.084.346a2.32 2.32 0 00-2.26-1.822c-1.626 0-2.794 1.574-2.778 3.818.015 2.244 1.348 4.066 3.193 4.066a2.523 2.523 0 001.74-.602v-2.109c0-.663-.272-.994-1.176-1.047v-.173h3.397v.173c-.799.053-1.107.422-1.107 1.047v1.634a4.105 4.105 0 01-7.26-2.62h.023zM71.306 25.1v.165h-3.155v-.173c.836-.06.972-.279.633-1.017l-.648-1.506H64.62l-.64 1.506c-.324.753-.173.956.678 1.017v.173h-2.26v-.173c.64-.06.912-.279 1.236-1.017l3.072-7.214h.196l3.133 7.222c.331.738.602.956 1.272 1.016zm-3.32-2.847l-1.62-3.818-1.604 3.818h3.224zm3.998-.896c0-2.606 1.552-4.519 4.006-4.519 1.507 0 2.651.693 3.013 1.808l-1.085.346a2.138 2.138 0 00-2.04-1.822c-1.59 0-2.681 1.506-2.681 3.66 0 2.153 1.272 3.682 3.125 3.682a2.719 2.719 0 002.688-1.822h.158a3.336 3.336 0 01-3.32 2.703 3.877 3.877 0 01-3.864-4.036zm10.34 3.743c.753-.046 1.084-.197 1.084-.92V21.5l-2.078-3.253c-.467-.754-.754-.957-1.266-1.017v-.173h3.013v.173c-.859.045-.957.27-.482 1.017l1.747 2.77 1.74-2.77c.474-.754.33-.972-.603-1.017v-.173h2.334v.173c-.58.06-.85.27-1.325 1.017L84.5 21.5v2.718c0 .753.354.874 1.084.919v.128h-3.26v-.166zm16.446-5.86h-.173c-.286-1.204-.911-1.86-2.003-1.86h-2.26v3.487h1.56c.896 0 1.046-.384 1.084-1.167h.166v2.703h-.174c0-.753-.188-1.182-1.084-1.182h-1.559v2.922c0 .753.354.911 1.461.956v.166h-3.69v-.173c.753-.045 1.107-.181 1.107-.919v-6.024c0-.708-.354-.859-1.107-.904v-.188h6.333l.34 2.184zm1.469 2.094c0-2.628 1.732-4.465 4.157-4.465a3.914 3.914 0 014.043 4.119c0 2.635-1.724 4.465-4.134 4.465a3.922 3.922 0 01-4.066-4.119zm7.033 0c0-2.327-1.288-4.112-3.125-4.112-1.657 0-2.703 1.56-2.719 3.766-.015 2.206 1.318 4.111 3.126 4.111 1.664.015 2.718-1.573 2.718-3.773v.008zm10.806-4.277v.173c-.753.045-1.107.196-1.107.904v4.21a2.818 2.818 0 01-.769 2.228 2.833 2.833 0 01-2.19.874c-2.018 0-3.261-1.183-3.261-3.103v-4.21c0-.707-.369-.858-1.107-.903v-.173h3.314v.173c-.753.045-1.107.196-1.107.904v4.21a2.359 2.359 0 00.674 1.863 2.362 2.362 0 001.856.696c1.378 0 2.259-.994 2.259-2.56v-4.21c0-.707-.361-.858-1.099-.903v-.173h2.537zm9.85 0v.173c-.851.045-1.107.27-1.107 1.017v7.206h-.308l-5.272-7.191v5.82c0 .754.309.957 1.296 1.017v.166h-2.742v-.173c.844-.06 1.107-.279 1.107-1.017v-6.25a1.499 1.499 0 00-1.197-.603v-.165h2.033l4.775 6.49v-5.27c0-.754-.309-.972-1.296-1.017v-.203h2.711zm9.594 3.825a4.187 4.187 0 01-4.232 4.383h-3.69v-.173c.753-.045 1.107-.181 1.107-.919v-6.024c0-.708-.354-.859-1.107-.904v-.188h3.532c3.095 0 4.39 1.784 4.39 3.825zm-1.19.279c0-1.853-1.174-3.766-3.411-3.766h-1.092v6.778c0 .58.369.753 1.506.753 1.823 0 2.967-1.386 2.967-3.765h.03zm10.573 3.939v.165h-3.163v-.173c.836-.06.972-.279.641-1.017l-.648-1.506h-3.524l-.633 1.506c-.324.753-.173.956.67 1.017v.173h-2.259v-.173c.64-.06.911-.279 1.235-1.017l3.073-7.214h.195l3.148 7.214c.316.746.588.964 1.265 1.024zm-3.321-2.847l-1.626-3.818-1.597 3.818h3.223zm11.153-3.013h-.173c-.286-1.204-.911-1.86-2.003-1.86h-1.002v6.778c0 .7.324.873 1.107.919v.188h-3.321v-.173c.753-.045 1.107-.219 1.107-.919v-6.777h-.994c-1.099 0-1.724.655-2.003 1.86h-.173l.316-2.2h6.815l.324 2.184zm1.483 5.86c.754-.061 1.107-.181 1.107-.92v-6.024c0-.708-.353-.858-1.107-.904v-.195h3.321v.173c-.753.045-1.092.196-1.092.904v6.024c0 .753.354.858 1.092.919v.188h-3.321v-.166zm4.692-3.766c0-2.628 1.732-4.466 4.157-4.466a3.913 3.913 0 014.074 4.12c0 2.635-1.725 4.465-4.134 4.465a3.92 3.92 0 01-3.845-2.514 3.921 3.921 0 01-.252-1.605zm7.034 0c0-2.327-1.288-4.112-3.126-4.112-1.656 0-2.703 1.559-2.718 3.765-.015 2.207 1.318 4.112 3.125 4.112 1.664.015 2.703-1.574 2.703-3.773l.016.008zm10.73-4.277v.173c-.851.045-1.107.27-1.107 1.017v7.206h-.293l-5.309-7.191v5.82c0 .754.309.957 1.295 1.017v.166h-2.741v-.173c.843-.06 1.107-.279 1.107-1.017v-6.25a1.507 1.507 0 00-1.197-.603v-.165h2.018l4.759 6.49v-5.27c0-.754-.309-.972-1.295-1.017v-.203h2.763zM27.712 3.313l.655-1.355.859-1.875A.06.06 0 0029.15 0l-1.883.858-1.348.633a.069.069 0 00-.038.09.07.07 0 00.09.038l1.68-.316-3.411 3.38A13.397 13.397 0 0015.09.92h-.43a13.224 13.224 0 00-13.1 11.543c-.527.294-.806.617-.806.941v1.582c0 .331.279.655.813.956a13.396 13.396 0 003.6 7.628l-2.38 2.388-.67.052a.09.09 0 00-.06 0L0 28.021v.045l1.273-.346-.377 1.235h.045l1.98-2.048a.083.083 0 000-.06l.061-.701 2.357-2.342a13.426 13.426 0 0022.9-7.84c.535-.3.814-.624.814-.956v-1.581c0-.332-.294-.663-.851-.972a13.291 13.291 0 00-3.713-7.53l3.434-3.404-.339 1.74a.069.069 0 00.09.09.07.07 0 00.038-.038zm-1.566 17.6a7.222 7.222 0 00-1.582-3.834l.324-.06c.981-.165 1.942-.43 2.87-.79a12.578 12.578 0 01-1.612 4.683zm-13.48-4.753a43.25 43.25 0 01-4.172-3.584 57.813 57.813 0 016.409-.339h1.694l-3.93 3.9v.023zm2.26 0H13.17l3.93-3.893h.22a45.456 45.456 0 014.284 3.577 64.994 64.994 0 01-6.702.384l.022-.068zm-6.642-5a62.838 62.838 0 016.649-.331h.339a94.23 94.23 0 011.641 1.144l-.045.053h-1.935a53.473 53.473 0 00-6.65.362 19.568 19.568 0 01-.557-.58l.558-.648zm1.604 4.85a45.787 45.787 0 01-4.278-.512 16.62 16.62 0 011.333-2.485 28.096 28.096 0 002.914 2.997h.03zm10.347-3.547c1.061.098 2.085.226 3.012.377l.896.158c-.316.757-.688 1.49-1.115 2.191a29.809 29.809 0 00-2.793-2.726zm-.302-.256a44.654 44.654 0 00-1.551-1.228l.068-.022c2.086.092 4.164.323 6.22.693-.12.399-.264.798-.422 1.197-1.257-.279-2.718-.49-4.315-.633v-.007zm-5.06-1.627a62.701 62.701 0 00-6.394.31c.445-.536.92-1.048 1.424-1.552.361-.354.753-.693 1.107-1.01a39.12 39.12 0 013.863 2.26v-.008zm.135 7.252c2.26 0 4.45-.113 6.409-.316a21.846 21.846 0 01-1.65 1.822c-.293.286-.594.565-.895.836a42.707 42.707 0 01-3.864-2.334v-.008zm2.922-7.184a32.854 32.854 0 00-5.633-3.351c2.764-2.018 5.61-3.118 7.96-3.118a4.94 4.94 0 013.359 1.13l-5.407 5.362-.279-.023zM4.985 17.124v-.082a47.07 47.07 0 006.025.692l-5.37 5.324c-1.122-1.332-1.37-3.426-.655-5.934zm6.56.633h.481l.497.376a34.483 34.483 0 005.053 3.08 16.997 16.997 0 01-5.655 2.922c-2.546.693-4.654.392-5.972-.85l5.595-5.528zm13.185-6.379a46.993 46.993 0 00-6.024-.692l5.196-5.144c1.197 1.288 1.498 3.351.828 5.837zm-3.494 9.926a17.711 17.711 0 01-.979-.43l.527-.504c.89-.876 1.7-1.832 2.418-2.854 1.814 2.033 2.59 3.615 2.123 4.255-.467.64-1.92.421-4.089-.467zM6.175 6.717a9.165 9.165 0 013.11.813l.316.136-.692.648a21.65 21.65 0 00-2.132 2.417C5.332 8.984 4.744 7.643 5.166 7.064a1.16 1.16 0 01.986-.347h.023zM4.978 11.65l.813-.151.128.188c.038.06.083.113.12.166-.21.324-.406.655-.587.986-1 .181-1.987.433-2.952.753.045-.459.113-.91.203-1.363a15.771 15.771 0 012.252-.58h.023zm-2.493 2.19a17.48 17.48 0 012.847-.753c-.378.705-.7 1.437-.964 2.191a15.28 15.28 0 01-1.95-.557c.004-.301.02-.595.044-.881h.023zm22.915-.58c.845.185 1.67.453 2.463.798v.422c-1.099.466-2.25.8-3.427.994.37-.713.684-1.453.942-2.214h.022zm2.463.557c-.78-.318-1.587-.57-2.41-.753.128-.414.234-.82.324-1.227.667.154 1.32.366 1.95.633.069.446.114.896.136 1.347zM10.776 6.664c-2.01-.753-3.712-1.001-4.872-.692l.301-.317A12.93 12.93 0 0121.56 3.426c-3.057-.753-7.154.43-10.784 3.238zm-5.158 4.617l-.708.128a16.57 16.57 0 00-2.169.557 12.79 12.79 0 011.612-3.961 6.777 6.777 0 001.265 3.276zm-4.165 2.756l-.165.09a1.01 1.01 0 01-.294-.715c0-.196.18-.422.527-.64-.015.444-.068.843-.068 1.265zm2.448 2.756a9.458 9.458 0 00-.128 3.765 13.073 13.073 0 01-1.258-4.172c.455.16.917.295 1.386.407zm6.175 8.69a11.042 11.042 0 002.304-.263 16.815 16.815 0 006.672-3.314 12.378 12.378 0 004.458 1.1c.456.011.91-.06 1.34-.211-.218.263-.451.512-.692.753A12.847 12.847 0 018.05 25.212a7.83 7.83 0 002.026.271zM28.33 14.037c-.007-.43-.037-.86-.09-1.288.368.226.572.46.572.663a.961.961 0 01-.302.715l-.18-.09zm-2.515-2.425a8.667 8.667 0 00-.136-4.307c1 1.47 1.677 3.136 1.988 4.887-.6-.246-1.22-.44-1.852-.58z"/></g><defs><clipPath id="clip0_1303_692"><path fill="#fff" d="M0 0h207.089v29H0z"/></clipPath></defs></svg>